<svg width="171" height="237" viewBox="0 0 171 237" fill="none" xmlns="http://www.w3.org/2000/svg">
<path d="M0.675282 118.276C0.675282 98.62 2.72728 81.448 6.83128 66.76C10.9353 51.856 16.6593 39.544 24.0033 29.824C31.5633 20.104 40.5273 12.868 50.8953 8.11599C61.2633 3.14799 72.8193 0.663985 85.5633 0.663985C112.779 0.663985 133.731 10.276 148.419 29.5C163.107 48.508 170.451 78.1 170.451 118.276C170.451 138.148 168.399 155.536 164.295 170.44C160.191 185.128 154.359 197.44 146.799 207.376C139.455 217.096 130.491 224.44 119.907 229.408C109.539 234.16 97.9833 236.536 85.2393 236.536C57.8073 236.536 36.8553 226.492 22.3833 206.404C7.91128 186.1 0.675282 156.724 0.675282 118.276ZM128.979 118.276C128.979 114.82 128.871 111.58 128.655 108.556C128.655 105.316 128.547 102.184 128.331 99.16L48.9513 171.412C55.6473 191.068 67.8513 200.896 85.5633 200.896C99.3873 200.896 110.079 194.308 117.639 181.132C125.199 167.956 128.979 147.004 128.979 118.276ZM42.1473 118.276C42.1473 121.516 42.1473 124.648 42.1473 127.672C42.3633 130.48 42.5793 133.396 42.7953 136.42L121.851 64.168C115.371 45.592 103.167 36.304 85.2393 36.304C71.4153 36.304 60.7233 43 53.1633 56.392C45.8193 69.568 42.1473 90.196 42.1473 118.276Z" fill="#FFCE9F"/>
</svg>
